<svg xmlns="http://www.w3.org/2000/svg" viewBox="0 0 960 600" width="960" height="600" font-family="Helvetica, Arial, sans-serif">
  <rect x="0" y="0" width="960" height="600" fill="#ffffff"/>
  <defs>
    <marker id="arr" markerWidth="10" markerHeight="10" refX="8" refY="3" orient="auto" markerUnits="strokeWidth">
      <path d="M0,0 L9,3 L0,6 z" fill="#444"/>
    </marker>
  </defs>

  <!-- Title -->
  <text x="480" y="42" text-anchor="middle" font-size="26" font-weight="700" fill="#1b2b4a">From foundation model to motor: the control cascade</text>

  <!-- 1: Camera + language instruction -->
  <rect x="180" y="64" width="600" height="42" rx="8" fill="#FCE8D5" stroke="#E0A96D" stroke-width="1.5"/>
  <text x="480" y="90" text-anchor="middle" font-size="16" fill="#6B4A2B">Camera + language instruction</text>

  <line x1="480" y1="106" x2="480" y2="128" stroke="#444" stroke-width="2" marker-end="url(#arr)"/>

  <!-- 2: GR00T N1.7 -->
  <rect x="180" y="128" width="600" height="78" rx="8" fill="#FCE8D5" stroke="#E0A96D" stroke-width="1.5"/>
  <text x="200" y="154" font-size="16" font-weight="700" fill="#6B4A2B">GR00T N1.7 (3B VLA)</text>
  <text x="200" y="174" font-size="13" fill="#6B4A2B">Cosmos-Reason2 backbone &#8594; DiT action head</text>
  <text x="760" y="168" text-anchor="end" font-size="14" font-weight="700" fill="#2E5FAC">&#8776;94 ms/inference on Thor</text>

  <!-- 3: side note attached to box 2 -->
  <line x1="780" y1="150" x2="788" y2="150" stroke="#999" stroke-width="1"/>
  <text x="792" y="146" font-size="13" font-style="italic" fill="#555">
    <tspan x="792" dy="0">action chunking:</tspan>
    <tspan x="792" dy="16">1 inference &#8594; N</tspan>
    <tspan x="792" dy="16">action steps</tspan>
  </text>

  <line x1="480" y1="206" x2="480" y2="230" stroke="#444" stroke-width="2" marker-end="url(#arr)"/>

  <!-- 4: Whole-body policy -->
  <rect x="180" y="230" width="600" height="46" rx="8" fill="#DCE9F7" stroke="#6F9BD1" stroke-width="1.5"/>
  <text x="200" y="257" font-size="16" fill="#234">Whole-body policy (SONIC / RL)</text>
  <text x="760" y="257" text-anchor="end" font-size="14" font-weight="700" fill="#2E5FAC">~50 Hz</text>

  <!-- arrow crossing the GPU / firmware divider -->
  <line x1="480" y1="276" x2="480" y2="326" stroke="#444" stroke-width="2" marker-end="url(#arr)"/>

  <!-- dashed divider -->
  <line x1="100" y1="306" x2="860" y2="306" stroke="#999" stroke-width="1.5" stroke-dasharray="6 5"/>
  <text x="830" y="300" text-anchor="end" font-size="13" font-style="italic" fill="#2E5FAC">GPU above &#183; classical firmware below</text>

  <!-- 5: ros2_control -->
  <rect x="180" y="326" width="600" height="46" rx="8" fill="#EAF1FB" stroke="#9BBCE0" stroke-width="1.5"/>
  <text x="200" y="353" font-size="15" fill="#234">ros2_control &#8212; torque/impedance loop</text>
  <text x="760" y="353" text-anchor="end" font-size="14" font-weight="700" fill="#2E5FAC">~1 kHz</text>

  <line x1="480" y1="372" x2="480" y2="396" stroke="#444" stroke-width="2" marker-end="url(#arr)"/>

  <!-- 6: EtherCAT / CAN-FD -->
  <rect x="180" y="396" width="600" height="46" rx="8" fill="#ECECEC" stroke="#B0B0B0" stroke-width="1.5"/>
  <text x="200" y="423" font-size="16" fill="#333">EtherCAT / CAN-FD fieldbus</text>
  <text x="760" y="423" text-anchor="end" font-size="14" font-weight="700" fill="#2E5FAC">1&#8211;10 kHz</text>

  <line x1="480" y1="442" x2="480" y2="466" stroke="#444" stroke-width="2" marker-end="url(#arr)"/>

  <!-- 7: Joint MCU -->
  <rect x="180" y="466" width="600" height="46" rx="8" fill="#ECECEC" stroke="#B0B0B0" stroke-width="1.5"/>
  <text x="200" y="493" font-size="15" fill="#333">Joint MCU &#8212; FOC current loop</text>
  <text x="760" y="493" text-anchor="end" font-size="14" font-weight="700" fill="#2E5FAC">8&#8211;32 kHz</text>

  <!-- Footnote -->
  <text x="480" y="548" text-anchor="middle" font-size="13" font-style="italic" fill="#666">NVIDIA's stack ends above the 1 kHz line &#8212; the bottom half is classical embedded engineering</text>
  <text x="480" y="572" text-anchor="middle" font-size="10" fill="#555555">VLA = vision-language-action model &#183; DiT = diffusion transformer (the action head) &#183; RL = reinforcement learning</text>
</svg>
